# xmcd
#
# Track frame offsets:
# 150
# 16670
# 33249
# 49216
# 67812
# 87489
# 111163
# 126608
# 141193
# 154193
# 175103
# 190711
# 209026
#
# Disc length: 3190 seconds
#
#
# Revision: 0
# Processed by: cddbd v1.5.1PL0 Copyright (c) Steve Scherf et al.
# Submitted via: FreeRIP 2.90 
#
DISCID=b50c740d
DTITLE=The Redlands Palomino Co. - By The Time You Hear This....We'll Be Gone
DYEAR=2004
DGENRE=Alternative
TTITLE0=Music's On
TTITLE1=Temptation
TTITLE2=Losing You
TTITLE3=Goodbye Love
TTITLE4=This One's For The Heartache
TTITLE5=Get On The Train
TTITLE6=Devil In My Head
TTITLE7=Cold And Blue
TTITLE8=Doin' It For The Country
TTITLE9=If You're Down
TTITLE10=Pony Song
TTITLE11=Make Tonight Last
TTITLE12=The Same Sky
EXTD=
EXTT0=
EXTT1=
EXTT2=
EXTT3=
EXTT4=
EXTT5=
EXTT6=
EXTT7=
EXTT8=
EXTT9=
EXTT10=
EXTT11=
EXTT12=
PLAYORDER=
